<svg viewBox="0 0 512.001 512.001" xmlns="http://www.w3.org/2000/svg"><linearGradient id="a" x1="0%" x2="100%" y1="0%" y2="0%"><stop offset="0" stop-color="#ea2845"/><stop offset="1" stop-color="#ea2868"/></linearGradient><g fill="url('#a')"><g stroke-width="1.035"><path d="M266.942 113.91V52.67c0-5.645-4.689-10.222-10.47-10.222S246 47.025 246 52.67v61.24c9.189-3.92 13.358-2.156 20.94 0zM409.173 405.875l52.416 31.667c4.832 2.919 11.174 1.272 14.164-3.676 2.99-4.95 1.497-11.329-3.335-14.248L420 387.951c-1.396 9.892-5.062 12.548-10.828 17.924zM97.869 409.543 45.452 441.21c-4.832 2.92-11.174 1.273-14.163-3.676-2.99-4.949-1.497-11.328 3.335-14.248L87.04 391.62c1.396 9.893 5.061 12.549 10.828 17.924z"/></g><path d="M502.001 438c-5.52 0-10 4.48-10 10s4.48 10 10 10 10-4.48 10-10c-.001-5.52-4.48-10-10-10zM256.001 0c-5.52 0-10 4.48-10 10s4.48 10 10 10 10-4.48 10-10-4.48-10-10-10zM10.001 438c-5.52 0-10 4.48-10 10s4.48 10 10 10 10-4.48 10-10-4.48-10-10-10z"/></g><path d="M426.001 393.951V198.65c0-3.74-2.087-7.168-5.41-8.885l-154.59-79.855c-7.817-3.068-9.498-5.944-20 0L91.412 189.765a10 10 0 0 0-5.411 8.885v195.301c.085 11.33.65 10.388 10.036 17.308l154.565 99.159a9.992 9.992 0 0 0 10.815-.011l154.547-99.148c9.961-6.345 9.951-6.361 10.037-17.308zm-180 89.753-131.047-84.072 94.824-58.282c4.704-2.892 6.175-9.051 3.283-13.756-2.892-4.706-9.052-6.174-13.756-3.283l-93.304 57.347v-163.86l140 83.869zm10-199.361-140.807-84.352 130.807-67.57V236c0 5.523 4.478 10 10 10s10-4.477 10-10V132.421l130.807 67.57zm150 97.315-93.304-57.348c-4.703-2.892-10.862-1.421-13.756 3.283-2.892 4.705-1.422 10.864 3.283 13.756l94.824 58.282-131.047 84.072V301.666l140-83.869z"/></svg>