<svg width="88" height="35" fill="none" xmlns="http://www.w3.org/2000/svg"><path d="M3.43 10.597c1.881 0 3.431 1.524 3.431 3.43 0 1.88-1.525 3.43-3.43 3.43A3.432 3.432 0 0 1 0 14.028c.025-1.906 1.55-3.43 3.43-3.43Z" fill="#4A37FF"/><path fill-rule="evenodd" clip-rule="evenodd" d="M8.157 8.36C8.157 3.303 11.359 0 16.34 0v.025h6.175l-2.11 5.566H16.34c-.838 0-2.058.559-2.058 2.871v2.465h6.124v6.023h-6.124l-.05 17.152H8.105l.051-17.966V8.36Zm29.249 15.628V10.927h6.073v14.307c0 4.879-3.456 8.868-9.91 8.868-6.455 0-9.911-3.99-9.911-8.868V10.927h6.073v13.132c-.011.702-.068 4.453 3.837 4.453 3.906 0 3.849-3.75 3.838-4.453v-.07Zm24.573-1.677c-1.144-1.22-2.77-2.083-4.829-2.566l-3.049-.636c-.737-.152-1.931-.584-1.931-1.956 0-.636.254-1.144.762-1.5.534-.431 1.169-.635 1.931-.635 2.618 0 3.43 1.754 3.66 2.796l.076.355 4.828-1.347s-.356-2.058-1.448-3.48c-1.068-1.373-3.126-3.05-7.116-3.101-2.287 0-4.269.711-5.819 2.16-1.6 1.474-2.388 3.176-2.388 5.184 0 3.354 2.261 5.794 6.175 6.683l2.82.66c2.084.509 2.363 1.398 2.363 2.11 0 1.423-1.016 2.236-2.77 2.236-2.134 0-3.659-1.22-4.116-3.253l-.076-.38-4.905 1.295s.356 2.338 1.576 3.837c.94 1.17 3.1 3.202 7.572 3.278 5.845 0 8.488-3.786 8.488-7.293a7.104 7.104 0 0 0-1.804-4.447Zm14.764-12.045c3.557 0 6.25 1.093 8.233 3.304 1.982 2.16 2.999 5.057 3.024 8.589 0 .559-.05 1.118-.102 1.55l-.025.33H71.025c.305 2.796 3.05 5.133 6.124 5.083 2.643 0 4.091-1.017 4.905-2.186l4.828 1.83c-1.093 2.007-2.973 3.66-5.286 4.549-1.499.533-2.922.787-4.421.787h-.229c-3.1 0-6.124-1.245-8.335-3.456-2.287-2.287-3.507-5.285-3.43-8.462 0-2.134.482-4.116 1.473-5.946 1.042-1.88 2.414-3.303 4.168-4.345 1.779-1.093 3.76-1.627 5.92-1.627Zm-3.66 6.277a5.24 5.24 0 0 0-1.753 2.973h10.8c-.152-1.245-.66-2.236-1.576-3.024-1.041-.813-2.312-1.245-3.786-1.245-1.448 0-2.694.432-3.685 1.296Z" fill="#000"/></svg>