<svg xmlns="http://www.w3.org/2000/svg" width="61" height="23" fill="none"><path d="M19.1 7.952v-.06c0-4.587-3.19-7.436-8.327-7.436H0v22.101h5.447v-6.806h3.754l4.497 6.802H20.1l-5.28-7.816c2.762-1.227 4.28-3.616 4.28-6.785Zm-5.507.243c0 1.618-1.168 3.007-3.123 3.007H5.447V5.098h4.935c1.467 0 3.211.873 3.211 3.037v.06ZM28.389.456H22.94v22.101h5.448V.456ZM42.399.456H32.374v22.101h10.025c6.7 0 10.1-4.647 10.1-11.048v-.06C52.5 5.077 49.1.456 42.4.456Zm4.447 11.108c0 3.544-1.534 6.18-5.07 6.18h-3.955V5.264h3.956c3.535 0 5.069 2.658 5.069 6.24v.06ZM60.93.456h-5.447v22.101h5.448V.456Z" fill="#1E9EFF"/></svg>